<?xml version="1.0" encoding="UTF-8"?>
<svg id="Layer_1" xmlns="http://www.w3.org/2000/svg" viewBox="0 0 82.64 95.06">
  <defs>
    <style>
      .cls-1 {
        fill: #fff;
      }
    </style>
  </defs>
  <path class="cls-1" d="M79.58,89.04c.13-.57.21-1.16.21-1.78,0-4.3-3.5-7.8-7.8-7.8-.03,0-.06,0-.09,0-.11-.76-.26-1.52-.4-2.27-.07-.38-.14-.75-.21-1.12l-.66-3.64c-.01-.06-.02-.2-.04-.37-.12-1.13-.21-1.68-.38-2-.43-2.12-2.07-7.31-8.09-11.58-.11-.08-.23-.11-.36-.11-.06-.16-.15-.32-.29-.43-1.47-1.25-5.02-4.36-6.24-6.19-.02-.02-.03-.05-.04-.07.06-.14.1-.3.08-.46-.2-2.26-.99-10.07-2.59-15.81-1.25-4.47-3.93-9.41-5.78-12.66,0,0,0,0,0,0-.22-.39-.46-.81-.7-1.22,0,0,0,0,0,0-.02-.04-.05-.09-.08-.13-.4-.7-1.89-3.33-2.11-3.61-.11-.12-.23-.24-.33-.33.08-.17.16-.34.23-.48.02.02.05.04.07.06.11.08,1.12.83,1.91.87,1.69.11,2.84-2.4,2.96-3.14.05-.02.23-.03.34-.04.34-.02.8-.04,1.12-.41.22-.26.3-.61.26-1.04l-.03-.27c-.03-.23-.05-.46-.05-.52.04-.07.25-.26.45-.45l.45-.41c.56-.53.81-1.3.91-2.08.17-.09.32-.22.42-.39.66-1.14,1.52-3.39-.06-5.73-1.44-2.13-2.71-2.3-3.84-2.45-.56-.07-1.1-.14-1.67-.48-.93-.54-2.12-.63-3.37-.27-1.66.48-3.11,1.68-3.88,3.18-.97,1.88-1.08,4.85-1.06,6.45,0,.16.05.31.12.45-.02.06-.04.12-.06.19-.71,2.17-1.95,3.27-2.67,3.75-.25-.21-.55-.34-.87-.35-.68-.04-1.35.52-1.99,1.6-.51.85-1.5,1.84-2.65,2.97-1.75,1.73-3.92,3.88-5.31,6.56-.15.29-.13.62,0,.9-.96,1.37-3.13,4.15-5.34,4.86-2.37.75-4.35,2.29-6.1,3.64-.75.58-1.46,1.13-2.14,1.58-.63.41-1.15.81-1.61,1.16-1.25.95-2.01,1.52-3.68,1.52-.34,0-.66,0-.94-.01-2.02-.04-2.91.02-4.39,2.13-1.62,2.32-1.63,4.02-.04,5.89.87,1,1.57,1.29,2.09,1.29.18,0,.34-.03.47-.08.37-.14.98-.55.98-1.86,0-.38-.04-.72-.08-1.02-.02-.16-.05-.38-.05-.5.12-.02.39-.03.98.06,2.36.36,4.14-.35,5.62-2.23.77-.97,5.29-3.02,11.01-5,3.14-1.08,7.38-4.23,9.28-5.71.14.13.29.23.48.27.16.03.33.02.49-.02.95,1.43,3.98,6.32,3.86,10.03-.07,2.32-.38,4-.65,5.47-.21,1.18-.4,2.19-.41,3.24,0,.17.05.34.12.48-.05.12-.09.24-.1.37-.04.7-.09,3.14.8,5.06.36.76.45,1.43.45,1.95-1.26-.68-2.98-1.21-5.34-1.29-5.45-.18-8.23-1.63-9-2.11.09-.61.05-1.31-.32-1.91-.49-.79-1.41-1.19-2.74-1.19s-2.24.05-3.01.09c-1.52.07-2.36.12-3.89-.27-2.16-.55-6.93.8-8.36,2.75-.56.77-.61,1.62-.14,2.38,1.14,1.81,3.15,1.81,5.27,1.82,1.25,0,2.54,0,3.78.36,1.07.3,1.76.59,2.32.81.73.29,1.23.48,1.85.48.28,0,.59-.04.95-.13,1.13.2,3.18.75,5.48,2.2.44.28.9.57,1.37.88,3.18,2.04,7.14,4.58,11.07,5.77.1.03.2.04.29.04,0,0,.01,0,.02,0,.06.05.12.1.2.13,1.24.61,3.81,1.73,5.95,1.73.79,0,1.52-.15,2.11-.54,2.42-1.61,3.2-6.13,3.23-6.32,0-.04,0-.08,0-.12.07-.09.14-.18.19-.29l.02-.06c.85.88,2.41,2.2,4.83,3.24.13.05.27.08.4.08.02,0,.04,0,.07-.01.08.11.19.21.34.25,2.5.76,6.54,2.12,7.45,2.77.65.47,1,1.09,1.19,1.53.04.09.08.16.14.23-.39.84-1.71,4.21.33,7.53.88,1.41,1.66,2.47,2.83,3.82-.76,1.2-1.2,2.62-1.2,4.14,0,4.3,3.5,7.8,7.8,7.8,1.92,0,3.68-.7,5.04-1.86.14.07.29.11.45.11h.22c3.34-.23,4.77-.73,4.93-1.73.14-.89-.75-1.64-3.04-2.56Z"/>
</svg>