<?xml version="1.0" encoding="UTF-8"?>
<svg xmlns="http://www.w3.org/2000/svg" version="1.1" viewBox="0 0 342.5 252.2">
  <defs>
    <style>
      .cls-1 {
        fill: #fff;
      }
    </style>
  </defs>
  <!-- Generator: Adobe Illustrator 28.6.0, SVG Export Plug-In . SVG Version: 1.2.0 Build 709)  -->
  <g>
    <g id="Layer_2">
      <g id="Layer_1-2">
        <g>
          <path class="cls-1" d="M308,45.6c12.4,14.8,19.1,32.7,20.2,50.9-4.1-11.2-10.2-17.7-11.8-19.3.1-2.6,0-15.1-8.4-31.6"/>
          <path class="cls-1" d="M272.1,27.3c18,3.9,30.9,14.9,32.3,16.1,9.8,17.5,10,31.2,9.9,33.8-8.1,6.2-17.4,14.8-20.1,17.3-3.2-3.8-14.6-14.2-35.9-18.8-.5-3.3-2.9-17.9-9.6-33.3,11-13.6,22.2-15,23.5-15.1"/>
          <path class="cls-1" d="M197.3,29c1-1.4,3.4-4.3,7.7-7.5,16.5-7.3,34.9-9.2,52.4-5.8l-.2.3,1.4.5c5.4,1.9,9.8,6.6,11.8,9-3.4.6-11,2.9-19.1,11-1.3,1.3-2.7,2.9-4.1,4.5-1.7-.4-6.8-1.6-13.1-2.3-7.1-.8-17.2-1.3-25.8,1-4.9-6.2-9-9.5-10.9-10.8"/>
          <path class="cls-1" d="M257.7,77.7c23,4.9,33.9,17,35.4,18.7l1.9,38.2c-2.9,2.3-21.2,16.9-35.5,20.9-8.6-4.6-29.1-13.6-32.6-15.1-3.6-19.2-1.8-36.9-1.4-40.1,2.9-1.6,18.9-10.6,32.2-22.6"/>
          <path class="cls-1" d="M317.2,139.1c-.6,2.6-2.4,8.6-6.3,15.5-2.5,3.3-5.2,6.5-8.2,9.5-8.1,8.1-17.3,14.2-27.2,18.5-5.1.6-13.8,1.1-21-1.2,4.6-10.9,5.7-21.3,5.9-24.1,14.8-4.2,32.8-18.6,35.9-21.2,9.1,3.1,17.6,3.1,21,2.9"/>
          <path class="cls-1" d="M157.1,80.6l-.8-4.3c4-13.4,11.3-26,21.9-36.5,2.4-2.4,5-4.7,7.6-6.8,2.5-1.3,5.9-2.6,9.7-2.7,1.1.7,5.6,3.9,10.9,10.7-2.1,3.1-11,17.5-13.6,35.2-2.7.5-11.7,2.9-23.5,14.7-1.2,1.2-2.4,2.5-3.6,3.8-7.6-7.2-8.7-13.9-8.7-14"/>
          <path class="cls-1" d="M198.7,156.7c-2.7-1.2-15.8-7.5-30-21.6-4.6-25.3-2.3-36.9-1.9-38.5,13.7-15.5,24.4-18.1,26.6-18.5,2.4,2.3,16.4,15.6,30,22.1-.4,3.8-2.1,21.3,1.4,40.3-11.5,5.9-23.6,14.4-26.1,16.1"/>
          <path class="cls-1" d="M312.6,29.9c-39.8-39.8-104.4-39.8-144.2,0-39.8,39.8-39.8,104.4,0,144.2s104.4,39.8,144.2,0,39.8-104.4,0-144.2ZM305.6,167.1c-35.9,35.9-94.3,35.9-130.2,0s-35.9-94.3,0-130.2c35.9-35.9,94.3-35.9,130.2,0,35.9,35.9,35.9,94.3,0,130.2Z"/>
          <path class="cls-1" d="M253,183.2c5,1.8,10.8,2.1,15.7,2-19.4,6.5-40.6,6.1-59.8-1.2,2-.9,3.5-1.6,4.1-1.9,20.7,4.1,37.6,1.5,39.9,1.1"/>
          <path class="cls-1" d="M178.3,164.2c-7.5-7.5-13.3-16-17.5-25.1l6.8-2.3c14.7,14.6,28,20.8,30.5,21.9,4.2,9.9,10.9,19,13.2,22-1.1.6-2.9,1.4-5.2,2.2-10.1-4.3-19.6-10.5-27.8-18.7h0Z"/>
          <path class="cls-1" d="M240.5,225.3C108.7,336.7,14.9,68.4,0,22.2c-.2-.7.8-1.1,1.1-.5,81.1,154.7,132.8,171.3,162.1,159.9.1.1.3.3.4.4,22,22,48.7,36.4,76.8,43.2Z"/>
          <path class="cls-1" d="M151.1,168.1c-50.3,13.7-85.1-86.1-91.2-105-.1-.3.4-.5.5-.2,34.7,66.1,57.7,77.6,71.7,74.9,5.1,10.6,11.5,20.8,19.1,30.3Z"/>
          <path class="cls-1" d="M121.3,108.8c1.2,4.7,2.7,9.3,4.4,13.9-19.9.2-33.5-38.8-36-46.6,0-.2.2-.2.2,0,15.2,29,25.3,34,31.4,32.8Z"/>
        </g>
      </g>
    </g>
  </g>
</svg>